<svg xmlns="http://www.w3.org/2000/svg" viewBox="0 0 400 400" fill="none">
  <!-- Background Circle -->
  <circle cx="200" cy="200" r="180" fill="#1e293b" opacity="0.3"/>
  
  <!-- Question Marks floating around -->
  <text x="80" y="100" font-size="40" fill="#94a3b8" opacity="0.5" font-family="serif">?</text>
  <text x="300" y="120" font-size="35" fill="#94a3b8" opacity="0.4" font-family="serif">?</text>
  <text x="60" y="280" font-size="30" fill="#94a3b8" opacity="0.3" font-family="serif">?</text>
  <text x="320" y="300" font-size="38" fill="#94a3b8" opacity="0.4" font-family="serif">?</text>
  
  <!-- Map/Scroll base -->
  <rect x="120" y="180" width="160" height="140" rx="5" fill="#f1f5f9" opacity="0.9"/>
  <rect x="125" y="185" width="150" height="130" rx="3" fill="#fef3c7"/>
  
  <!-- Map details - path lines -->
  <path d="M 140 200 Q 160 220 180 210 T 220 230 Q 240 220 260 240" stroke="#92400e" stroke-width="2" fill="none" opacity="0.6"/>
  <path d="M 150 260 L 170 270 L 190 255 L 210 265 L 230 250" stroke="#92400e" stroke-width="2" fill="none" opacity="0.6"/>
  
  <!-- Map details - X marks and location dots -->
  <circle cx="150" cy="210" r="3" fill="#dc2626"/>
  <circle cx="190" cy="225" r="3" fill="#dc2626"/>
  <circle cx="240" cy="235" r="3" fill="#dc2626"/>
  <text x="220" y="280" font-size="28" fill="#dc2626" font-weight="bold">✗</text>
  
  <!-- Adventurer character - simplified stick figure with hat -->
  <!-- Body -->
  <circle cx="200" cy="140" r="18" fill="#94a3b8"/>
  <!-- Hat -->
  <ellipse cx="200" cy="128" rx="22" ry="6" fill="#64748b"/>
  <rect x="190" y="115" width="20" height="13" rx="2" fill="#64748b"/>
  
  <!-- Arms looking confused -->
  <line x1="185" y1="155" x2="170" y2="170" stroke="#94a3b8" stroke-width="6" stroke-linecap="round"/>
  <line x1="215" y1="155" x2="230" y2="170" stroke="#94a3b8" stroke-width="6" stroke-linecap="round"/>
  
  <!-- Legs -->
  <line x1="195" y1="170" x2="185" y2="195" stroke="#94a3b8" stroke-width="6" stroke-linecap="round"/>
  <line x1="205" y1="170" x2="215" y2="195" stroke="#94a3b8" stroke-width="6" stroke-linecap="round"/>
  
  <!-- Simple face - confused expression -->
  <circle cx="193" cy="138" r="2" fill="#1e293b"/>
  <circle cx="207" cy="138" r="2" fill="#1e293b"/>
  <path d="M 193 147 Q 200 145 207 147" stroke="#1e293b" stroke-width="2" fill="none"/>
  
  <!-- Backpack -->
  <rect x="207" y="145" width="12" height="16" rx="2" fill="#7c3aed" opacity="0.8"/>
  
  <!-- Compass in hand (right) -->
  <circle cx="230" cy="170" r="8" fill="#fbbf24" opacity="0.9"/>
  <circle cx="230" cy="170" r="5" fill="#fef3c7"/>
  <line x1="230" y1="170" x2="230" y2="166" stroke="#dc2626" stroke-width="1.5"/>
  
  <!-- Torch in left hand -->
  <line x1="170" y1="170" x2="170" y2="185" stroke="#78350f" stroke-width="3"/>
  <ellipse cx="170" cy="165" rx="6" ry="8" fill="#f59e0b" opacity="0.8"/>
  <ellipse cx="170" cy="162" rx="4" ry="6" fill="#fbbf24" opacity="0.9"/>
  
  <!-- Sparkles/stars around to show confusion -->
  <path d="M 250 140 L 252 145 L 257 147 L 252 149 L 250 154 L 248 149 L 243 147 L 248 145 Z" fill="#a78bfa" opacity="0.6"/>
  <path d="M 145 155 L 147 160 L 152 162 L 147 164 L 145 169 L 143 164 L 138 162 L 143 160 Z" fill="#a78bfa" opacity="0.6"/>
  
  <!-- Path continues off the map -->
  <path d="M 260 240 L 280 250" stroke="#92400e" stroke-width="2" stroke-dasharray="5,5" fill="none" opacity="0.4"/>
</svg>
